# xmcd
# 
# Track frame offsets:
#     150
#     9467
#     20125
#     35552
#     49230
#     60975
#     72500
#     83440
#     95485
#     108665
#     120800
#     131400
#     141215
#     158210
#     174742
#     188472
#     201397
#     219000
#     232395
#     246025
# 
# Disc length: 3458
# 
# Revision: 0
# Processed by: cddbd v1.5.2PL0 Copyright (c) Steve Scherf et al.
# Submitted via: fre:ac v1.0.27
# 
DISCID=130d8014
DTITLE=Various Artist - Best Of The 70s
DYEAR=1996
DGENRE=Country
TTITLE0=Charley Pride - Kiss An Angel Good Morning
TTITLE1=Barbara Mandrell - Sleeping Single In A Double Bed
TTITLE2=B. J. Thomas - (Hey Won't You Play) Another Somebody Done Somebody Wrong Song
TTITLE3=Conway Twitty - You've Never Been This Far Before
TTITLE4=Sonny James - Bright Lights, Big City
TTITLE5=Sammi Smith - Help Me Make It Through The Night
TTITLE6=Charlie Rich - There Won't Be Anymore
TTITLE7=Larry Gatlin and The Gatlin Brothers - All The Gold In California
TTITLE8=Crystal Gayle - Talking In Your Sleep
TTITLE9=Dolly Parton - Jolene
TTITLE10=Willie Nelson - Blue Eyes Crying In The Rain
TTITLE11=Mel Tillis - I Ain't Never
TTITLE12=T. G. Sheppard - Last Cheater's Waltz
TTITLE13=Dickey Lee - Rocky
TTITLE14=Dolly Parton - It's All Wrong, But It's All Right
TTITLE15=Eddie Rabbitt - Every Which Way But Loose
TTITLE16=Together Again - Emmylou Harris
TTITLE17=Ronnie Mislap - (I'd Be) A Legend In My Time
TTITLE18=Loretta Lynn - Coal Miner's Daughter
TTITLE19=Waylon Jennings - Amanda
EXTD=Reader's Digest Collection
EXTT0=
EXTT1=
EXTT2=
EXTT3=
EXTT4=
EXTT5=
EXTT6=
EXTT7=
EXTT8=
EXTT9=
EXTT10=
EXTT11=
EXTT12=
EXTT13=
EXTT14=
EXTT15=
EXTT16=
EXTT17=
EXTT18=
EXTT19=
PLAYORDER=
